<?xml version="1.0" encoding="UTF-8" standalone="no"?>
<svg width="200px" height="160px" viewBox="0 0 200 160" version="1.1" xmlns="http://www.w3.org/2000/svg" xmlns:xlink="http://www.w3.org/1999/xlink" xmlns:sketch="http://www.bohemiancoding.com/sketch/ns">
    <title>rawr</title>
    <description>Created with Sketch (http://www.bohemiancoding.com/sketch)</description>
    <defs></defs>
    <g id="Page-1" stroke="none" stroke-width="1" fill="none" fill-rule="evenodd" sketch:type="MSPage">
        <path d="M20.0001277,160 C8.94946575,160 0,151.044449 0,139.997217 L0,40.0027826 C0,28.9572253 8.954305,20 20,20 L40,20 L60,0 L100,20 L180.00385,20 C191.037662,20 200,28.9555508 200,40.0027826 L200,100 L90.0012978,100 C73.4320385,100 60,113.430696 60,130.009493 L60,140 L200,140 C199.998496,151.044279 191.04471,160 179.999872,160 L20.0001277,160 Z M57,33 C57,28.3337345 58.5980288,24.0407089 61.276673,20.6383365 L96.3270774,38.1635387 C94.050505,46.7065742 86.2602071,53 77,53 C65.9543045,53 57,44.0456955 57,33 Z M185,40 C185,37.2385761 182.761424,35 180,35 C177.238576,35 175,37.2385761 175,40 C175,42.7614239 177.238576,45 180,45 C182.761424,45 185,42.7614239 185,40 Z" id="Rectangle-1" fill="#4A4A4A" sketch:type="MSShapeGroup"></path>
    </g>
</svg>